0
SECTION
2
ENTITIES
0
POLYLINE
8
DU_06_W_200
66
1
70
0
0
VERTEX
8
DU_06_W_200
10
1.00003000
20
0.00033000
30
0.0
0
VERTEX
8
DU_06_W_200
10
0.99507100
20
0.00099100
30
0.0
0
VERTEX
8
DU_06_W_200
10
0.98874500
20
0.00179000
30
0.0
0
VERTEX
8
DU_06_W_200
10
0.98084400
20
0.00282100
30
0.0
0
VERTEX
8
DU_06_W_200
10
0.97135400
20
0.00413400
30
0.0
0
VERTEX
8
DU_06_W_200
10
0.96070300
20
0.00567600
30
0.0
0
VERTEX
8
DU_06_W_200
10
0.94936100
20
0.00738000
30
0.0
0
VERTEX
8
DU_06_W_200
10
0.93767300
20
0.00918800
30
0.0
0
VERTEX
8
DU_06_W_200
10
0.92578100
20
0.01106400
30
0.0
0
VERTEX
8
DU_06_W_200
10
0.91379900
20
0.01296700
30
0.0
0
VERTEX
8
DU_06_W_200
10
0.90178200
20
0.01489200
30
0.0
0
VERTEX
8
DU_06_W_200
10
0.88975400
20
0.01682800
30
0.0
0
VERTEX
8
DU_06_W_200
10
0.87772700
20
0.01877900
30
0.0
0
VERTEX
8
DU_06_W_200
10
0.86570400
20
0.02074100
30
0.0
0
VERTEX
8
DU_06_W_200
10
0.85369700
20
0.02271900
30
0.0
0
VERTEX
8
DU_06_W_200
10
0.84167900
20
0.02471400
30
0.0
0
VERTEX
8
DU_06_W_200
10
0.82968600
20
0.02671700
30
0.0
0
VERTEX
8
DU_06_W_200
10
0.81774000
20
0.02874100
30
0.0
0
VERTEX
8
DU_06_W_200
10
0.80577100
20
0.03079600
30
0.0
0
VERTEX
8
DU_06_W_200
10
0.79379900
20
0.03285700
30
0.0
0
VERTEX
8
DU_06_W_200
10
0.78185400
20
0.03493900
30
0.0
0
VERTEX
8
DU_06_W_200
10
0.76988900
20
0.03705300
30
0.0
0
VERTEX
8
DU_06_W_200
10
0.75792400
20
0.03918000
30
0.0
0
VERTEX
8
DU_06_W_200
10
0.74600700
20
0.04132700
30
0.0
0
VERTEX
8
DU_06_W_200
10
0.73407700
20
0.04351100
30
0.0
0
VERTEX
8
DU_06_W_200
10
0.72212800
20
0.04571600
30
0.0
0
VERTEX
8
DU_06_W_200
10
0.71022500
20
0.04793600
30
0.0
0
VERTEX
8
DU_06_W_200
10
0.69832500
20
0.05017600
30
0.0
0
VERTEX
8
DU_06_W_200
10
0.68645300
20
0.05241700
30
0.0
0
VERTEX
8
DU_06_W_200
10
0.67458900
20
0.05468500
30
0.0
0
VERTEX
8
DU_06_W_200
10
0.66268700
20
0.05694900
30
0.0
0
VERTEX
8
DU_06_W_200
10
0.65077300
20
0.05922100
30
0.0
0
VERTEX
8
DU_06_W_200
10
0.63885900
20
0.06148000
30
0.0
0
VERTEX
8
DU_06_W_200
10
0.62693400
20
0.06371600
30
0.0
0
VERTEX
8
DU_06_W_200
10
0.61500600
20
0.06593400
30
0.0
0
VERTEX
8
DU_06_W_200
10
0.60314700
20
0.06810900
30
0.0
0
VERTEX
8
DU_06_W_200
10
0.59129200
20
0.07022900
30
0.0
0
VERTEX
8
DU_06_W_200
10
0.57943000
20
0.07230700
30
0.0
0
VERTEX
8
DU_06_W_200
10
0.56754700
20
0.07434300
30
0.0
0
VERTEX
8
DU_06_W_200
10
0.55567600
20
0.07633900
30
0.0
0
VERTEX
8
DU_06_W_200
10
0.54379200
20
0.07828200
30
0.0
0
VERTEX
8
DU_06_W_200
10
0.53187900
20
0.08019500
30
0.0
0
VERTEX
8
DU_06_W_200
10
0.51998400
20
0.08206000
30
0.0
0
VERTEX
8
DU_06_W_200
10
0.50805600
20
0.08388500
30
0.0
0
VERTEX
8
DU_06_W_200
10
0.49611500
20
0.08567900
30
0.0
0
VERTEX
8
DU_06_W_200
10
0.48418700
20
0.08743100
30
0.0
0
VERTEX
8
DU_06_W_200
10
0.47224200
20
0.08914700
30
0.0
0
VERTEX
8
DU_06_W_200
10
0.46035400
20
0.09081400
30
0.0
0
VERTEX
8
DU_06_W_200
10
0.44844600
20
0.09242600
30
0.0
0
VERTEX
8
DU_06_W_200
10
0.43659900
20
0.09399000
30
0.0
0
VERTEX
8
DU_06_W_200
10
0.42478700
20
0.09546600
30
0.0
0
VERTEX
8
DU_06_W_200
10
0.41300300
20
0.09687700
30
0.0
0
VERTEX
8
DU_06_W_200
10
0.40129000
20
0.09818200
30
0.0
0
VERTEX
8
DU_06_W_200
10
0.38959500
20
0.09939200
30
0.0
0
VERTEX
8
DU_06_W_200
10
0.37796300
20
0.10048300
30
0.0
0
VERTEX
8
DU_06_W_200
10
0.36636100
20
0.10145300
30
0.0
0
VERTEX
8
DU_06_W_200
10
0.35481400
20
0.10228200
30
0.0
0
VERTEX
8
DU_06_W_200
10
0.34326600
20
0.10296900
30
0.0
0
VERTEX
8
DU_06_W_200
10
0.33172600
20
0.10351400
30
0.0
0
VERTEX
8
DU_06_W_200
10
0.32017800
20
0.10391200
30
0.0
0
VERTEX
8
DU_06_W_200
10
0.30859300
20
0.10418000
30
0.0
0
VERTEX
8
DU_06_W_200
10
0.29705400
20
0.10430900
30
0.0
0
VERTEX
8
DU_06_W_200
10
0.28548900
20
0.10429000
30
0.0
0
VERTEX
8
DU_06_W_200
10
0.27392800
20
0.10414200
30
0.0
0
VERTEX
8
DU_06_W_200
10
0.26241900
20
0.10385100
30
0.0
0
VERTEX
8
DU_06_W_200
10
0.25092000
20
0.10340600
30
0.0
0
VERTEX
8
DU_06_W_200
10
0.23944100
20
0.10281500
30
0.0
0
VERTEX
8
DU_06_W_200
10
0.22801600
20
0.10207400
30
0.0
0
VERTEX
8
DU_06_W_200
10
0.21663700
20
0.10117200
30
0.0
0
VERTEX
8
DU_06_W_200
10
0.20531800
20
0.10010300
30
0.0
0
VERTEX
8
DU_06_W_200
10
0.19405200
20
0.09886100
30
0.0
0
VERTEX
8
DU_06_W_200
10
0.18286600
20
0.09744700
30
0.0
0
VERTEX
8
DU_06_W_200
10
0.17179200
20
0.09584500
30
0.0
0
VERTEX
8
DU_06_W_200
10
0.16079200
20
0.09404200
30
0.0
0
VERTEX
8
DU_06_W_200
10
0.14993800
20
0.09203800
30
0.0
0
VERTEX
8
DU_06_W_200
10
0.13917000
20
0.08980600
30
0.0
0
VERTEX
8
DU_06_W_200
10
0.12856300
20
0.08736600
30
0.0
0
VERTEX
8
DU_06_W_200
10
0.11812800
20
0.08468900
30
0.0
0
VERTEX
8
DU_06_W_200
10
0.10787600
20
0.08177200
30
0.0
0
VERTEX
8
DU_06_W_200
10
0.09786300
20
0.07861000
30
0.0
0
VERTEX
8
DU_06_W_200
10
0.08808500
20
0.07517500
30
0.0
0
VERTEX
8
DU_06_W_200
10
0.07858600
20
0.07148400
30
0.0
0
VERTEX
8
DU_06_W_200
10
0.06940200
20
0.06751500
30
0.0
0
VERTEX
8
DU_06_W_200
10
0.06058600
20
0.06328400
30
0.0
0
VERTEX
8
DU_06_W_200
10
0.05217500
20
0.05879400
30
0.0
0
VERTEX
8
DU_06_W_200
10
0.04425400
20
0.05406300
30
0.0
0
VERTEX
8
DU_06_W_200
10
0.03687100
20
0.04912400
30
0.0
0
VERTEX
8
DU_06_W_200
10
0.03010700
20
0.04403700
30
0.0
0
VERTEX
8
DU_06_W_200
10
0.02405700
20
0.03889800
30
0.0
0
VERTEX
8
DU_06_W_200
10
0.01878100
20
0.03381600
30
0.0
0
VERTEX
8
DU_06_W_200
10
0.01433200
20
0.02893000
30
0.0
0
VERTEX
8
DU_06_W_200
10
0.01068100
20
0.02435900
30
0.0
0
VERTEX
8
DU_06_W_200
10
0.00775600
20
0.02019500
30
0.0
0
VERTEX
8
DU_06_W_200
10
0.00546000
20
0.01647900
30
0.0
0
VERTEX
8
DU_06_W_200
10
0.00372000
20
0.01315100
30
0.0
0
VERTEX
8
DU_06_W_200
10
0.00241900
20
0.01016800
30
0.0
0
VERTEX
8
DU_06_W_200
10
0.00144600
20
0.00748900
30
0.0
0
VERTEX
8
DU_06_W_200
10
0.00070200
20
0.00510200
30
0.0
0
VERTEX
8
DU_06_W_200
10
0.00025900
20
0.00293200
30
0.0
0
VERTEX
8
DU_06_W_200
10
0.00003800
20
0.00094400
30
0.0
0
VERTEX
8
DU_06_W_200
10
0.00004600
20
-0.00091100
30
0.0
0
VERTEX
8
DU_06_W_200
10
0.00038500
20
-0.00285500
30
0.0
0
VERTEX
8
DU_06_W_200
10
0.00098000
20
-0.00496800
30
0.0
0
VERTEX
8
DU_06_W_200
10
0.00186200
20
-0.00725600
30
0.0
0
VERTEX
8
DU_06_W_200
10
0.00306500
20
-0.00975500
30
0.0
0
VERTEX
8
DU_06_W_200
10
0.00463000
20
-0.01250700
30
0.0
0
VERTEX
8
DU_06_W_200
10
0.00665300
20
-0.01553300
30
0.0
0
VERTEX
8
DU_06_W_200
10
0.00922400
20
-0.01887100
30
0.0
0
VERTEX
8
DU_06_W_200
10
0.01247700
20
-0.02251800
30
0.0
0
VERTEX
8
DU_06_W_200
10
0.01653400
20
-0.02648400
30
0.0
0
VERTEX
8
DU_06_W_200
10
0.02145600
20
-0.03074000
30
0.0
0
VERTEX
8
DU_06_W_200
10
0.02728800
20
-0.03518200
30
0.0
0
VERTEX
8
DU_06_W_200
10
0.03397000
20
-0.03970400
30
0.0
0
VERTEX
8
DU_06_W_200
10
0.04141700
20
-0.04417700
30
0.0
0
VERTEX
8
DU_06_W_200
10
0.04950700
20
-0.04850800
30
0.0
0
VERTEX
8
DU_06_W_200
10
0.05815900
20
-0.05265500
30
0.0
0
VERTEX
8
DU_06_W_200
10
0.06724400
20
-0.05657200
30
0.0
0
VERTEX
8
DU_06_W_200
10
0.07671700
20
-0.06024400
30
0.0
0
VERTEX
8
DU_06_W_200
10
0.08651000
20
-0.06366900
30
0.0
0
VERTEX
8
DU_06_W_200
10
0.09659100
20
-0.06686500
30
0.0
0
VERTEX
8
DU_06_W_200
10
0.10688800
20
-0.06981600
30
0.0
0
VERTEX
8
DU_06_W_200
10
0.11740200
20
-0.07255500
30
0.0
0
VERTEX
8
DU_06_W_200
10
0.12808500
20
-0.07506700
30
0.0
0
VERTEX
8
DU_06_W_200
10
0.13894100
20
-0.07739100
30
0.0
0
VERTEX
8
DU_06_W_200
10
0.14991800
20
-0.07952000
30
0.0
0
VERTEX
8
DU_06_W_200
10
0.16101700
20
-0.08147200
30
0.0
0
VERTEX
8
DU_06_W_200
10
0.17219900
20
-0.08325100
30
0.0
0
VERTEX
8
DU_06_W_200
10
0.18345900
20
-0.08485700
30
0.0
0
VERTEX
8
DU_06_W_200
10
0.19483500
20
-0.08631000
30
0.0
0
VERTEX
8
DU_06_W_200
10
0.20624600
20
-0.08762700
30
0.0
0
VERTEX
8
DU_06_W_200
10
0.21771800
20
-0.08878300
30
0.0
0
VERTEX
8
DU_06_W_200
10
0.22926700
20
-0.08982200
30
0.0
0
VERTEX
8
DU_06_W_200
10
0.24082400
20
-0.09072200
30
0.0
0
VERTEX
8
DU_06_W_200
10
0.25244500
20
-0.09149800
30
0.0
0
VERTEX
8
DU_06_W_200
10
0.26410400
20
-0.09216000
30
0.0
0
VERTEX
8
DU_06_W_200
10
0.27577100
20
-0.09270900
30
0.0
0
VERTEX
8
DU_06_W_200
10
0.28745500
20
-0.09313600
30
0.0
0
VERTEX
8
DU_06_W_200
10
0.29917900
20
-0.09345900
30
0.0
0
VERTEX
8
DU_06_W_200
10
0.31090100
20
-0.09367300
30
0.0
0
VERTEX
8
DU_06_W_200
10
0.32264600
20
-0.09378300
30
0.0
0
VERTEX
8
DU_06_W_200
10
0.33438600
20
-0.09378500
30
0.0
0
VERTEX
8
DU_06_W_200
10
0.34616400
20
-0.09368800
30
0.0
0
VERTEX
8
DU_06_W_200
10
0.35791700
20
-0.09349400
30
0.0
0
VERTEX
8
DU_06_W_200
10
0.36970200
20
-0.09319400
30
0.0
0
VERTEX
8
DU_06_W_200
10
0.38148300
20
-0.09280500
30
0.0
0
VERTEX
8
DU_06_W_200
10
0.39327700
20
-0.09231500
30
0.0
0
VERTEX
8
DU_06_W_200
10
0.40508700
20
-0.09173900
30
0.0
0
VERTEX
8
DU_06_W_200
10
0.41689200
20
-0.09107300
30
0.0
0
VERTEX
8
DU_06_W_200
10
0.42871400
20
-0.09031800
30
0.0
0
VERTEX
8
DU_06_W_200
10
0.44053400
20
-0.08948400
30
0.0
0
VERTEX
8
DU_06_W_200
10
0.45234800
20
-0.08856200
30
0.0
0
VERTEX
8
DU_06_W_200
10
0.46417600
20
-0.08756100
30
0.0
0
VERTEX
8
DU_06_W_200
10
0.47599300
20
-0.08648000
30
0.0
0
VERTEX
8
DU_06_W_200
10
0.48781100
20
-0.08532200
30
0.0
0
VERTEX
8
DU_06_W_200
10
0.49960500
20
-0.08409100
30
0.0
0
VERTEX
8
DU_06_W_200
10
0.51135400
20
-0.08278000
30
0.0
0
VERTEX
8
DU_06_W_200
10
0.52306800
20
-0.08138600
30
0.0
0
VERTEX
8
DU_06_W_200
10
0.53469200
20
-0.07990400
30
0.0
0
VERTEX
8
DU_06_W_200
10
0.54624500
20
-0.07831700
30
0.0
0
VERTEX
8
DU_06_W_200
10
0.55768600
20
-0.07662000
30
0.0
0
VERTEX
8
DU_06_W_200
10
0.56902500
20
-0.07478100
30
0.0
0
VERTEX
8
DU_06_W_200
10
0.58032000
20
-0.07278100
30
0.0
0
VERTEX
8
DU_06_W_200
10
0.59159200
20
-0.07062000
30
0.0
0
VERTEX
8
DU_06_W_200
10
0.60288000
20
-0.06829300
30
0.0
0
VERTEX
8
DU_06_W_200
10
0.61421200
20
-0.06581200
30
0.0
0
VERTEX
8
DU_06_W_200
10
0.62558500
20
-0.06319100
30
0.0
0
VERTEX
8
DU_06_W_200
10
0.63703000
20
-0.06043400
30
0.0
0
VERTEX
8
DU_06_W_200
10
0.64859700
20
-0.05755800
30
0.0
0
VERTEX
8
DU_06_W_200
10
0.66026800
20
-0.05461000
30
0.0
0
VERTEX
8
DU_06_W_200
10
0.67198100
20
-0.05162700
30
0.0
0
VERTEX
8
DU_06_W_200
10
0.68370100
20
-0.04865700
30
0.0
0
VERTEX
8
DU_06_W_200
10
0.69543000
20
-0.04571900
30
0.0
0
VERTEX
8
DU_06_W_200
10
0.70715300
20
-0.04280700
30
0.0
0
VERTEX
8
DU_06_W_200
10
0.71879500
20
-0.03996400
30
0.0
0
VERTEX
8
DU_06_W_200
10
0.73045800
20
-0.03718000
30
0.0
0
VERTEX
8
DU_06_W_200
10
0.74207800
20
-0.03446300
30
0.0
0
VERTEX
8
DU_06_W_200
10
0.75372600
20
-0.03181500
30
0.0
0
VERTEX
8
DU_06_W_200
10
0.76534400
20
-0.02923400
30
0.0
0
VERTEX
8
DU_06_W_200
10
0.77696000
20
-0.02674000
30
0.0
0
VERTEX
8
DU_06_W_200
10
0.78858500
20
-0.02431500
30
0.0
0
VERTEX
8
DU_06_W_200
10
0.80018200
20
-0.02198100
30
0.0
0
VERTEX
8
DU_06_W_200
10
0.81175200
20
-0.01974200
30
0.0
0
VERTEX
8
DU_06_W_200
10
0.82330100
20
-0.01761700
30
0.0
0
VERTEX
8
DU_06_W_200
10
0.83486000
20
-0.01559300
30
0.0
0
VERTEX
8
DU_06_W_200
10
0.84638700
20
-0.01368500
30
0.0
0
VERTEX
8
DU_06_W_200
10
0.85789700
20
-0.01190300
30
0.0
0
VERTEX
8
DU_06_W_200
10
0.86939400
20
-0.01024900
30
0.0
0
VERTEX
8
DU_06_W_200
10
0.88086000
20
-0.00873100
30
0.0
0
VERTEX
8
DU_06_W_200
10
0.89229100
20
-0.00736700
30
0.0
0
VERTEX
8
DU_06_W_200
10
0.90371900
20
-0.00616000
30
0.0
0
VERTEX
8
DU_06_W_200
10
0.91515000
20
-0.00510800
30
0.0
0
VERTEX
8
DU_06_W_200
10
0.92658600
20
-0.00421400
30
0.0
0
VERTEX
8
DU_06_W_200
10
0.93803000
20
-0.00347000
30
0.0
0
VERTEX
8
DU_06_W_200
10
0.94942400
20
-0.00287200
30
0.0
0
VERTEX
8
DU_06_W_200
10
0.96066200
20
-0.00239300
30
0.0
0
VERTEX
8
DU_06_W_200
10
0.97132100
20
-0.00198900
30
0.0
0
VERTEX
8
DU_06_W_200
10
0.98072300
20
-0.00170800
30
0.0
0
VERTEX
8
DU_06_W_200
10
0.98862700
20
-0.00154400
30
0.0
0
VERTEX
8
DU_06_W_200
10
0.99497800
20
-0.00136400
30
0.0
0
VERTEX
8
DU_06_W_200
10
0.99997000
20
-0.00116900
30
0.0
0
SEQEND
0
ENDSEC
0
EOF
